<svg xmlns="http://www.w3.org/2000/svg" viewBox="0 0 32 32"><defs><linearGradient id="g" x1="16" y1="1" x2="16" y2="31" gradientUnits="userSpaceOnUse"><stop offset="0" stop-color="#ffd08a"/><stop offset=".38" stop-color="#ff7a1a"/><stop offset="1" stop-color="#ff2e63"/></linearGradient><mask id="m"><rect width="32" height="32" fill="#fff"/><rect x="15" y="9.5" width="2" height="17.5" rx="1"/><rect x="12.4" y="15" width="7.2" height="8.6" rx="1.6"/></mask></defs><rect width="32" height="32" rx="8" fill="#0a0a0b"/><path transform="translate(3.2 3.2) scale(.8)" d="M16 1.5c3.4 4.3 9.6 9.7 9.6 17.1A9.6 9.6 0 0 1 16 28.3a9.6 9.6 0 0 1-9.6-9.7c0-4.4 2.3-7.2 4.4-9.4.3 2.3 1.4 3.9 2.9 4.6C13.2 9.4 14 5.6 16 1.5Z" fill="url(#g)" mask="url(#m)"/></svg>
